<?xml version="1.0" standalone="no"?>
<!DOCTYPE svg PUBLIC "-//W3C//DTD SVG 20010904//EN"
 "http://www.w3.org/TR/2001/REC-SVG-20010904/DTD/svg10.dtd">
<svg version="1.0" xmlns="http://www.w3.org/2000/svg"
 width="1000.000000pt" height="1000.000000pt" viewBox="0 0 1000.000000 1000.000000"
 preserveAspectRatio="xMidYMid meet">
<metadata>
Created by potrace 1.14, written by Peter Selinger 2001-2017
</metadata>
<g transform="translate(0.000000,1000.000000) scale(0.100000,-0.100000)"
fill="#000000" stroke="none">
<path d="M0 8750 l0 -1250 5000 0 5000 0 0 1250 0 1250 -5000 0 -5000 0 0
-1250z"/>
<path d="M1280 3720 l0 -2010 560 0 560 0 2 1119 3 1119 665 -1119 665 -1119
567 0 568 0 0 2010 0 2010 -560 0 -560 0 0 -1136 c0 -624 -4 -1133 -8 -1130
-5 3 -299 514 -653 1136 l-644 1130 -582 0 -583 0 0 -2010z"/>
<path d="M5540 3721 l0 -2011 698 0 c720 0 882 6 1087 40 936 156 1525 754
1647 1670 19 143 15 499 -6 645 -51 342 -169 645 -348 887 -33 46 -115 137
-182 203 -299 297 -689 475 -1206 551 -98 15 -231 18 -902 21 l-788 4 0 -2010z
m1401 1039 c245 -23 414 -93 565 -234 188 -174 279 -408 291 -746 9 -263 -28
-455 -123 -640 -161 -313 -463 -468 -911 -470 l-83 0 0 1050 0 1050 78 0 c42
0 125 -5 183 -10z"/>
</g>
</svg>
